# xmcd
#
# Track frame offsets:
# 150
# 11992
# 28692
# 42017
# 76885
# 90012
# 105279
# 129962
# 142247
# 162887
# 179265
# 197577
# 209777
# 230990
#
# Disc length: 3260 seconds
#
#
# Revision: 2
# Processed by: cddbd v1.4PL0 Copyright (c) Steve Scherf et al.
# Submitted via: FreeRIP 2.40 
#
DISCID=b50cba0e
DTITLE=Al Garner and The Roadrunners - Leavin' Tennessee
DYEAR=1998
DGENRE=Blues
TTITLE0=You Must Be Crazy
TTITLE1=Gonna Stop My Drinkin'
TTITLE2=Leavin' Tennessee
TTITLE3=Crankshaft Blues
TTITLE4=Three Times Seven
TTITLE5=Six Days A Week (And Sundays Too)
TTITLE6=I've Seen The Times
TTITLE7=Real Good Men
TTITLE8=Think It Over
TTITLE9=Melvis
TTITLE10=Slave To Love
TTITLE11=Rockin' Ever Since I Left My Baby
TTITLE12=Her Love Is Killing Me
TTITLE13=Next Time You See Me
EXTD=
EXTT0=
EXTT1=
EXTT2=
EXTT3=
EXTT4=
EXTT5=
EXTT6=
EXTT7=
EXTT8=
EXTT9=
EXTT10=
EXTT11=
EXTT12=
EXTT13=
PLAYORDER=
